<svg width="49" height="49" viewBox="0 0 49 49" fill="none" xmlns="http://www.w3.org/2000/svg">
<path d="M35.2188 7.65625H41.3438C41.7499 7.65625 42.1393 7.81758 42.4265 8.10474C42.7137 8.39191 42.875 8.78139 42.875 9.1875V12.4414C42.875 13.609 42.4112 14.7287 41.5856 15.5543C40.76 16.3799 39.6402 16.8437 38.4727 16.8438H35.2188" stroke="black" stroke-width="3.0625" stroke-linecap="round" stroke-linejoin="round"/>
<path d="M9.1875 7.65625H35.2188V26.0312C35.2188 27.0367 35.0207 28.0323 34.636 28.9612C34.2512 29.8901 33.6872 30.7341 32.9763 31.445C32.2653 32.156 31.4213 32.7199 30.4924 33.1047C29.5635 33.4895 28.5679 33.6875 27.5625 33.6875H16.8438C14.8132 33.6875 12.8658 32.8809 11.43 31.445C9.99414 30.0092 9.1875 28.0618 9.1875 26.0312V7.65625Z" stroke="black" stroke-width="3.0625" stroke-linecap="round" stroke-linejoin="round"/>
<path d="M6.125 39.8125H38.2812" stroke="black" stroke-width="3.0625" stroke-linecap="round" stroke-linejoin="round"/>
</svg>
