<svg width="48" height="48" viewBox="0 0 48 48" fill="none" xmlns="http://www.w3.org/2000/svg">
<path d="M31 48C30.447 48 30 47.553 30 47V1C30 0.447 30.447 0 31 0C31.553 0 32 0.447 32 1V47C32 47.553 31.553 48 31 48Z" fill="black"/>
<path d="M37 31H31C30.447 31 30 30.553 30 30C30 29.447 30.447 29 31 29H35.996C35.863 12.198 32.411 2.34 30.982 1.998C30.43 1.998 29.991 1.552 29.991 0.999C29.991 0.447 30.447 0 31 0C35.188 0 38 15.512 38 30C38 30.553 37.553 31 37 31Z" fill="black"/>
<path d="M17 18C13.141 18 10 14.859 10 11V1C10 0.447 10.447 0 11 0C11.553 0 12 0.447 12 1V11C12 13.757 14.243 16 17 16C19.757 16 22 13.757 22 11V1C22 0.447 22.447 0 23 0C23.553 0 24 0.447 24 1V11C24 14.859 20.859 18 17 18Z" fill="black"/>
<path d="M17 48C16.447 48 16 47.553 16 47V1C16 0.447 16.447 0 17 0C17.553 0 18 0.447 18 1V47C18 47.553 17.553 48 17 48Z" fill="black"/>
</svg>
