<svg width="55" height="55" viewBox="0 0 55 55" fill="none" xmlns="http://www.w3.org/2000/svg">
<path d="M42.7302 33.9453H20.6948C20.3291 33.9459 19.9742 33.8221 19.6882 33.5943C19.4022 33.3665 19.2022 33.0482 19.121 32.6917L15.4107 16.5268C15.3564 16.2907 15.3561 16.0454 15.4097 15.8091C15.4634 15.5728 15.5696 15.3517 15.7206 15.1622C15.8715 14.9726 16.0632 14.8196 16.2815 14.7144C16.4997 14.6092 16.7389 14.5546 16.9812 14.5546H46.4438C46.6864 14.5541 46.9259 14.6083 47.1446 14.7133C47.3632 14.8183 47.5554 14.9713 47.7067 15.1609C47.8579 15.3505 47.9645 15.5718 48.0183 15.8083C48.0721 16.0448 48.0719 16.2905 48.0175 16.5268L44.3007 32.6917C44.2197 33.0477 44.0202 33.3656 43.7348 33.5933C43.4495 33.8211 43.0953 33.9452 42.7302 33.9453ZM21.9774 30.7227H41.4476L44.42 17.7805H19.004L21.9774 30.7227Z" fill="black"/>
<path d="M23.8476 48.3398C22.6264 48.3398 21.4326 47.9777 20.4172 47.2992C19.4017 46.6208 18.6103 45.6564 18.143 44.5281C17.6756 43.3999 17.5534 42.1584 17.7916 40.9606C18.0299 39.7629 18.6179 38.6627 19.4815 37.7991C20.345 36.9356 21.4452 36.3475 22.643 36.1093C23.8407 35.871 25.0822 35.9933 26.2105 36.4606C27.3388 36.928 28.3031 37.7194 28.9816 38.7348C29.6601 39.7502 30.0222 40.944 30.0222 42.1652C30.0205 43.8023 29.3694 45.3719 28.2118 46.5294C27.0542 47.687 25.4847 48.3381 23.8476 48.3398ZM23.8476 39.2143C23.2637 39.2143 22.6929 39.3875 22.2075 39.7119C21.722 40.0363 21.3436 40.4974 21.1202 41.0369C20.8968 41.5763 20.8384 42.1699 20.9524 42.7426C21.0664 43.3152 21.3477 43.8412 21.7606 44.254C22.1736 44.6668 22.6997 44.9479 23.2723 45.0617C23.845 45.1754 24.4386 45.1168 24.978 44.8932C25.5174 44.6697 25.9783 44.2911 26.3026 43.8055C26.6268 43.32 26.7998 42.7491 26.7995 42.1652C26.7987 41.3827 26.4874 40.6324 25.9339 40.0792C25.3805 39.526 24.6301 39.2149 23.8476 39.2143Z" fill="black"/>
<path d="M39.5763 48.3398C38.3551 48.3398 37.1613 47.9777 36.1459 47.2992C35.1305 46.6208 34.3391 45.6564 33.8717 44.5281C33.4044 43.3999 33.2821 42.1584 33.5204 40.9606C33.7586 39.7629 34.3467 38.6627 35.2102 37.7991C36.0738 36.9356 37.174 36.3475 38.3717 36.1093C39.5695 35.871 40.811 35.9933 41.9393 36.4606C43.0675 36.928 44.0319 37.7194 44.7103 38.7348C45.3888 39.7502 45.751 40.944 45.751 42.1652C45.7492 43.8023 45.0982 45.3719 43.9406 46.5294C42.783 47.687 41.2134 48.3381 39.5763 48.3398ZM39.5763 39.2143C38.9925 39.2143 38.4217 39.3875 37.9362 39.7119C37.4507 40.0363 37.0724 40.4974 36.849 41.0369C36.6256 41.5763 36.5672 42.1699 36.6812 42.7426C36.7952 43.3152 37.0764 43.8412 37.4894 44.254C37.9023 44.6668 38.4284 44.9479 39.0011 45.0617C39.5738 45.1754 40.1674 45.1168 40.7068 44.8932C41.2461 44.6697 41.7071 44.2911 42.0313 43.8055C42.3556 43.32 42.5285 42.7491 42.5283 42.1652C42.5274 41.3827 42.2161 40.6324 41.6627 40.0792C41.1092 39.526 40.3589 39.2149 39.5763 39.2143Z" fill="black"/>
<path d="M16.9813 17.7772C16.643 17.7772 16.3134 17.6708 16.039 17.4729C15.7647 17.2751 15.5595 16.996 15.4526 16.6751L12.6908 8.37891H7.59473C7.16738 8.37891 6.75753 8.20914 6.45535 7.90696C6.15316 7.60478 5.9834 7.19493 5.9834 6.76758C5.9834 6.34023 6.15316 5.93038 6.45535 5.6282C6.75753 5.32601 7.16738 5.15625 7.59473 5.15625H13.8574C14.1957 5.15628 14.5253 5.26275 14.7997 5.46056C15.074 5.65837 15.2792 5.9375 15.386 6.2584L18.5152 15.6567C18.5959 15.8989 18.6179 16.1568 18.5793 16.4092C18.5408 16.6615 18.4429 16.9011 18.2936 17.1082C18.1443 17.3153 17.948 17.4839 17.7207 17.6002C17.4935 17.7166 17.2419 17.7772 16.9866 17.7772H16.9813Z" fill="black"/>
</svg>
