<svg width="67" height="93" viewBox="0 0 67 93" fill="none" xmlns="http://www.w3.org/2000/svg">
<g clip-path="url(#clip0_1_14)">
<path d="M32.8012 0.404735C32.3637 0.855959 32.3637 0.371919 32.8012 5.83447C32.9954 8.26014 33.1718 9.05184 33.3345 8.24373C33.366 8.03316 33.4959 6.57831 33.5929 5.02637C33.6886 3.4758 33.8035 1.90745 33.8514 1.53553C33.9334 1.00227 33.8678 0.791694 33.5601 0.436184L33.1882 0L32.8012 0.404735ZM28.5816 1.29624C28.5009 1.474 28.4203 1.74884 28.4203 1.91155C28.4203 2.20143 31.6691 8.48849 31.9931 8.81255C32.2994 9.13661 32.1053 8.42422 30.9581 4.9662C29.9722 2.04008 29.7138 1.40973 29.3897 1.21557C28.8564 0.924326 28.7758 0.942102 28.583 1.29761L28.5816 1.29624ZM36.9703 1.22924C36.6148 1.42341 36.3892 1.95667 35.3869 5.02773C34.7401 6.98304 34.2383 8.67992 34.2711 8.777C34.3204 8.89049 35.1599 7.43563 36.1622 5.561C37.7948 2.45712 37.9575 2.0852 37.8276 1.6162C37.6827 0.987225 37.5364 0.921592 36.9703 1.22924ZM24.3797 3.73422C24.3797 4.39739 24.4276 4.44524 27.1281 6.51541C27.4344 6.75743 28.4531 7.53271 29.3733 8.2451C30.2949 8.97116 31.1358 9.55365 31.2165 9.55365C31.3778 9.55365 31.2985 9.44016 30.1978 8.16306C29.8915 7.80755 29.2762 7.08012 28.8236 6.56327C25.8975 3.13669 25.8496 3.08884 25.0908 3.08884H24.3797V3.73422ZM38.2638 5.70867C34.9671 9.49076 35.0314 9.42649 35.1285 9.52357C35.1927 9.60425 36.437 8.68265 39.88 5.99992C41.8681 4.46439 41.998 4.31808 41.998 3.65629C41.998 3.0902 41.998 3.0902 41.2706 3.0902H40.5596L38.2638 5.70867ZM20.5484 6.17494C19.9331 6.35269 19.9181 6.499 20.3228 7.29069C20.5649 7.74192 20.7741 7.87182 21.4058 8.03453C22.1811 8.21229 27.418 9.60151 29.6331 10.2154C30.9731 10.571 30.8446 10.5559 30.8446 10.3932C30.8446 10.3125 29.696 9.73141 28.3068 9.08465C26.9011 8.42149 25.1386 7.59698 24.3797 7.24147C21.5179 5.90147 21.5179 5.90147 20.5484 6.17494ZM43.6949 6.46755C42.6284 6.95296 41.3677 7.53408 39.6544 8.34355C39.0391 8.6348 37.844 9.18447 37.0359 9.55639C36.2114 9.94335 35.5318 10.3153 35.5318 10.3795C35.5318 10.5573 35.4033 10.5737 36.8253 10.1867C37.9083 9.89549 39.5573 9.4429 44.2282 8.21365C45.0691 7.98804 45.7637 7.77747 45.7965 7.74602C45.8922 7.64894 46.3612 6.4361 46.3298 6.40329C46.1835 6.29116 45.1333 5.99992 44.9228 6.01633C44.7778 6.01633 44.2282 6.22553 43.6949 6.46755ZM32.7042 10.0227C31.8154 10.3946 31.6527 11.3968 32.3637 12.1243L32.8163 12.5933L32.6221 14.9205C32.4397 17.2259 32.1651 19.523 31.799 21.8064C31.6363 22.7595 31.6363 23.0507 31.814 23.3748C32.1053 23.9081 32.2023 23.8917 32.6071 23.2121C33.0269 22.5011 33.2525 22.5011 33.7215 23.2121C34.1426 23.8752 34.2233 23.8917 34.5952 23.3898C34.8687 23.0179 34.8536 22.9222 34.5624 21.321C34.122 19.0084 33.8197 16.6716 33.6572 14.323L33.5437 12.529L34.0606 12.0272C34.6595 11.4297 34.6923 11.0085 34.2069 10.4588C33.7857 9.9912 33.1896 9.82986 32.7042 10.0227ZM16.0868 11.04L15.4729 11.5732L16.0882 12.1721L16.7007 12.7697L23.6359 12.1407C27.4508 11.7852 30.6025 11.4611 30.6504 11.4119C30.6996 11.3804 30.634 11.2998 30.5055 11.2505C30.2306 11.1548 22.8442 10.7173 19.2877 10.6038L16.7007 10.5081L16.0868 11.04ZM45.7965 10.6366C45.359 10.653 42.9524 10.7979 40.4625 10.9429C37.9739 11.0728 35.8723 11.2669 35.7916 11.3476C35.6945 11.4297 35.6617 11.4925 35.7096 11.4925C35.7424 11.4925 38.9105 11.7838 42.7241 12.1393L49.6757 12.7697L50.2417 12.22L50.7914 11.6553L50.2417 11.0892L49.6921 10.5231L48.1565 10.5559C47.3694 10.5674 46.5826 10.5943 45.7965 10.6366ZM30.3592 12.2542C30.2306 12.3034 29.9079 12.4319 29.6317 12.5618C29.3733 12.6753 27.403 13.3549 25.2685 14.0659C23.1355 14.7769 19.4012 16.0376 16.9605 16.8608L12.5153 18.3648L11.9971 19.2536C11.7072 19.739 11.5294 20.1916 11.5773 20.2395C11.6415 20.3051 12.0627 20.5143 12.5153 20.6921L13.322 21.0476L20.9204 17.3147C25.0908 15.261 29.0342 13.3221 29.681 12.998C30.3099 12.6917 30.8446 12.369 30.8446 12.287C30.8446 12.1256 30.7311 12.1256 30.3592 12.2542ZM35.5318 12.287C35.5318 12.4333 36.5177 12.9337 46.4433 17.7837C49.7399 19.3999 52.5526 20.7891 52.7139 20.8876C52.9409 21.0161 53.2321 20.9669 53.8939 20.6921C54.3793 20.4829 54.7677 20.2559 54.7677 20.1916C54.7677 19.8675 53.9432 18.4455 53.6847 18.317C53.522 18.2349 49.7563 16.9428 45.3111 15.4551C42.3525 14.4706 39.3999 13.4684 36.4534 12.4483C35.5646 12.0928 35.5318 12.0928 35.5318 12.287ZM29.6317 14.5158C28.743 15.3567 26.6427 17.3927 24.9445 19.0581C23.2626 20.7071 20.3543 23.5512 18.4796 25.378C16.4094 27.3918 14.3456 29.4123 12.2883 31.4394L9.50848 34.1878V37.0483L10.9305 36.9525C12.2404 36.8541 12.369 36.8062 12.7409 36.3537L13.9701 34.866C15.538 32.9409 17.095 31.007 18.641 29.0643C18.9145 28.7239 19.352 28.1756 19.6118 27.8351C19.8853 27.496 22.1318 24.6833 24.6218 21.5959C27.1103 18.5084 29.3254 15.7436 29.5511 15.4538L30.6668 14.0153C31.0551 13.5135 31.345 13.0773 31.3136 13.0445C31.2807 13.013 30.5205 13.6598 29.6317 14.5158ZM34.8851 13.0308C34.8851 13.0787 35.1763 13.467 35.5154 13.8868C37.3567 16.1165 39.1835 18.358 40.9958 20.6114C41.4155 21.1282 42.2879 22.2112 42.9346 23.0042C43.5814 23.7959 44.89 25.3957 45.8444 26.5758C47.239 28.3242 48.6506 30.0589 50.079 31.7799C50.6615 32.4909 51.2919 33.2676 51.4532 33.4932C51.631 33.7201 52.3105 34.5761 52.9723 35.4006L54.1852 36.8719H56.8679V34.3669L53.1665 30.7298L42.3207 20.0617C38.3937 16.199 35.1121 12.998 35.0314 12.9816C34.9493 12.9501 34.8851 12.9652 34.8851 13.0308Z" fill="#F687B3"/>
<path d="M31.3464 14.5158C31.0552 15.1297 30.1336 16.8908 29.3091 18.4428C28.379 20.1865 27.4628 21.9377 26.5607 23.6961C25.8661 25.0225 24.6054 27.4618 23.733 29.1108C22.7651 30.971 21.7952 32.8301 20.8233 34.6882C18.9637 38.2761 16.6693 42.6558 16.281 43.3353C16.1032 43.6416 15.7969 44.2241 15.6192 44.6288C15.425 45.0322 14.3093 47.1995 13.1128 49.4446L10.947 53.5344L11.3025 55.0699C11.4966 55.9108 11.7072 56.6218 11.7715 56.6697C11.9328 56.7668 14.5513 55.636 14.8753 55.3119C15.1338 55.0699 15.5043 54.229 16.9441 50.6082C17.37 49.5555 17.8012 48.5049 18.2377 47.4565C19.2386 45.0486 20.7426 41.3787 22.326 37.5159C22.8114 36.3195 23.5553 34.4941 23.975 33.4754C24.3962 32.4567 24.9459 31.0825 25.2043 30.4358C25.4627 29.8068 25.8018 28.9659 25.9796 28.5776C26.1409 28.2056 26.7549 26.7344 27.3373 25.3123C28.3082 22.9195 31.1522 16.0349 31.7019 14.725C32.3801 13.0924 32.1217 12.9474 31.3464 14.5158ZM34.2383 13.4834C34.2383 13.6284 34.6431 14.6798 35.4512 16.5873C35.8231 17.4761 36.4863 19.0444 36.906 20.0617C37.3272 21.0804 37.8769 22.3903 38.1189 22.9714C38.5701 23.9901 40.5268 28.661 41.5933 31.2958C41.8846 32.0069 42.5313 33.526 43.0153 34.6896C43.8563 36.6941 45.214 39.9265 46.7988 43.7414C47.5741 45.6174 47.9296 46.4734 50.064 51.5818L51.5339 55.0726C51.6802 55.4281 54.2823 56.6574 54.4764 56.4632C54.5243 56.399 54.7991 55.8001 55.0918 55.1219L55.6072 53.8776L54.3958 51.5654C53.0544 48.9305 48.9811 41.2036 45.3111 34.2056C43.9533 31.6199 42.4342 28.758 41.9488 27.82C38.7164 21.5808 34.546 13.694 34.3847 13.5162C34.3026 13.4342 34.2383 13.4191 34.2383 13.4834ZM32.7849 23.8096C32.6071 24.1009 32.3473 24.7148 32.2024 25.1838C31.9918 25.9276 31.9918 26.0726 32.2024 26.5908C32.4293 27.1405 32.4772 27.1719 33.2539 27.1719C33.9963 27.1719 34.0606 27.1405 34.2233 26.6715C34.319 26.3802 34.4011 26.0083 34.4011 25.8141C34.4011 25.4108 33.5437 23.5348 33.2853 23.3898C33.1896 23.3256 32.9626 23.5197 32.7849 23.8096ZM34.7402 23.8411C34.4981 24.1323 34.4981 24.4878 34.7087 25.3287C34.8208 25.7663 34.8208 26.1697 34.7238 26.5402C34.5296 27.2198 34.5146 27.1719 34.8058 27.1719C35.2256 27.1719 35.4197 25.9755 35.2092 24.7312C35.0957 24.1159 34.9986 23.6155 34.9671 23.6155C34.8784 23.6762 34.8014 23.7527 34.7402 23.8411ZM31.4107 23.9395C31.3286 24.053 31.2493 24.6834 31.2001 25.3137C31.1194 26.5252 31.3136 27.1733 31.7498 27.1733C31.9439 27.1733 31.9603 27.1077 31.799 26.8315C31.6212 26.4937 31.6691 25.378 31.8947 24.6669C32.0246 24.2472 31.6048 23.6319 31.4107 23.9395ZM31.1522 28.0457C30.4727 28.6432 30.4412 28.9837 31.0388 29.6619L31.5556 30.2444H34.773L35.3062 29.6619C35.6125 29.3542 35.8559 28.9837 35.8559 28.8688C35.8559 28.7403 35.6139 28.4176 35.3391 28.1578C34.8208 27.6737 34.773 27.6573 33.1882 27.6573C31.7334 27.6737 31.5242 27.7066 31.1509 28.0457H31.1522ZM31.6035 28.7252C31.7183 29.0315 31.2808 29.5169 31.0223 29.3706C30.8282 29.2421 30.7803 28.7416 30.9581 28.5789C31.1522 28.3848 31.49 28.4654 31.6035 28.7252ZM33.6572 28.7252C33.7707 29.0315 33.4959 29.4363 33.1882 29.4363C32.8819 29.4363 32.6071 29.0315 32.7206 28.7252C32.7684 28.5789 32.979 28.4654 33.1882 28.4654C33.3988 28.4654 33.6094 28.5789 33.6572 28.7252ZM35.5004 28.903C35.4348 29.4513 34.9671 29.5976 34.8044 29.1286C34.6759 28.691 34.8208 28.4654 35.2256 28.4654C35.484 28.4654 35.5496 28.5625 35.5004 28.903ZM31.5884 30.7626C31.5556 30.8761 31.4107 31.5556 31.2493 32.2667C31.103 32.9777 30.6504 34.5296 30.2635 35.726C29.8751 36.9211 29.5525 38.0205 29.5525 38.1654C29.5525 38.4566 30.1336 39.2976 30.3277 39.2976C30.392 39.2976 30.5862 39.0378 30.7475 38.7315C30.9253 38.4252 31.1522 38.1654 31.2808 38.1654C31.3943 38.1654 31.6212 38.4252 31.7662 38.7315C31.9111 39.0391 32.0738 39.2976 32.1217 39.2976C32.1696 39.2976 32.3965 38.9749 32.6071 38.5701C33.0583 37.7292 33.3181 37.6485 33.5916 38.3281C33.9321 39.1526 34.159 39.2169 34.546 38.5701C34.7238 38.2625 34.9343 38.004 35.015 38.004C35.0793 38.004 35.3541 38.3281 35.6139 38.7315L36.0651 39.4589L36.437 38.8121L36.809 38.1504L36.1472 36.0966C35.3541 33.6395 34.9029 31.8141 34.8865 31.0866V30.5684H33.2675C32.1053 30.5684 31.6212 30.634 31.5884 30.7626Z" fill="#F687B3"/>
<path d="M32.3651 39.8759C31.7334 40.8782 31.5885 41.2665 31.5885 41.8641L31.5721 42.6079H34.6431L34.6923 41.9926C34.7238 41.5564 34.5953 41.1038 34.2233 40.3778C33.9869 39.9277 33.7553 39.4751 33.5287 39.02C33.4316 38.8094 33.3018 38.6481 33.2375 38.6481C33.1732 38.6481 32.7863 39.1977 32.3651 39.8759ZM34.7088 39.1663C34.4654 39.6517 34.4654 39.7488 34.7402 40.3791C34.9015 40.7661 35.0643 41.0737 35.1121 41.0737C35.1613 41.0737 35.3227 40.8468 35.4676 40.5719C35.7425 40.0223 35.6782 39.5697 35.242 39.0049L34.9508 38.633L34.7088 39.1663ZM30.9417 39.1649C30.6341 39.6011 30.6177 39.9402 30.8774 40.5063C31.1195 41.0396 31.2001 41.0231 31.5556 40.3614C31.8305 39.8595 31.8305 39.7789 31.5885 39.3099C31.2644 38.7123 31.2494 38.7123 30.9417 39.1649ZM29.1642 39.9429C28.97 41.6562 29.2927 42.6913 30.0201 42.6913C30.9089 42.6913 30.9417 41.4306 30.0858 39.9758C29.7617 39.4261 29.439 38.9735 29.3747 38.9735C29.3255 38.9735 29.2284 39.4097 29.1642 39.9429ZM36.1308 40.282C35.7917 40.9138 35.5319 41.5756 35.5319 41.7533C35.5319 42.3194 35.8395 42.6913 36.325 42.6913C36.6955 42.6913 36.8254 42.5778 37.0032 42.1745C37.3423 41.3499 37.2301 39.1348 36.8418 39.1348C36.7775 39.1348 36.4535 39.6531 36.1308 40.2834V40.282ZM25.4463 40.7497C25.3164 41.0737 25.2207 43.0126 25.3329 43.0126C25.3821 43.0126 25.6077 42.8349 25.8497 42.5929L26.2709 42.1881L26.8041 43.029C27.1118 43.4803 27.4345 44.2255 27.5644 44.6781C27.6765 45.1293 27.9199 45.6475 28.0976 45.8253C28.3711 46.1001 28.4695 46.1165 28.7922 45.9388C29.2298 45.6954 29.6003 45.1621 29.4718 44.9529C29.4062 44.8558 29.0671 44.7916 28.6788 44.7916C28.017 44.7916 28.0005 44.7751 27.8228 44.0956C27.7093 43.7237 27.2731 42.8991 26.8205 42.2852C25.4792 40.3942 25.5434 40.4748 25.4463 40.7497ZM40.576 40.7825C40.4671 40.8908 40.3985 41.0332 40.3819 41.1859C40.3819 41.2994 40.1385 41.6713 39.8322 41.994C39.2497 42.6571 38.7164 43.6266 38.5387 44.3376C38.443 44.7423 38.3609 44.7902 37.6978 44.7902C37.1973 44.7902 36.9553 44.8722 36.8746 45.05C36.7611 45.3563 37.4229 46.0837 37.8113 46.0837C38.1832 46.0837 38.685 45.3727 38.927 44.4839C39.0977 43.7714 39.4485 43.1146 39.9457 42.5765L40.2684 42.2209L40.576 42.6093C41.1407 43.3367 41.1736 43.256 41.0601 41.0245C41.0286 40.5555 40.8823 40.4748 40.576 40.7825ZM29.3255 43.5951C29.052 44.3061 29.0179 44.3061 33.1883 44.3061C35.8888 44.3061 37.1495 44.2569 37.1495 44.1284C37.1495 44.0313 37.0674 43.8207 36.9867 43.643C36.8254 43.3517 36.5998 43.3353 33.124 43.3353C29.908 43.3353 29.4062 43.3681 29.3255 43.5951ZM26.5949 45.2127C26.383 45.6174 26.383 45.7309 26.5771 46.0058C26.8684 46.4091 26.8684 46.8125 26.5457 47.2979C26.3023 47.6698 26.3023 47.7355 26.5457 48.106C26.6906 48.333 26.8848 48.5107 26.9655 48.5107C27.1596 48.5107 27.5151 47.864 27.3852 47.7505C27.3374 47.6862 27.4345 47.5563 27.6122 47.4278C28.2262 46.9903 28.2904 46.6347 27.8542 46.215C27.6286 46.0208 27.4509 45.7637 27.4509 45.6653C27.4509 45.5532 27.321 45.3098 27.1432 45.1006L26.852 44.7287L26.5935 45.2127H26.5949ZM29.7617 45.6639C29.2927 46.1493 28.9057 46.6183 28.9057 46.7154C28.9057 46.8111 29.1313 47.0545 29.4062 47.2487C29.666 47.4593 30.0529 47.864 30.2307 48.1539L30.5534 48.6871L30.9417 48.3316C31.1523 48.1375 31.33 47.879 31.33 47.7819C31.33 47.6685 31.5078 47.5071 31.717 47.41C31.944 47.3143 32.2024 47.0873 32.2831 46.9096C32.4444 46.6347 32.3802 46.5212 31.8948 46.1329C31.5885 45.8909 31.33 45.5997 31.33 45.5039C31.33 45.3399 30.8118 44.7916 30.6669 44.7916C30.3516 45.068 30.0496 45.3591 29.7617 45.6639ZM31.1687 46.6347C31.1687 46.9574 30.7311 47.2637 30.4399 47.1516C30.15 47.0545 30.1172 46.5527 30.392 46.2792C30.6176 46.0523 31.1687 46.3107 31.1687 46.6347ZM31.9768 45.0992C31.9768 45.3905 32.9613 46.4078 33.2375 46.4078C33.3182 46.4078 33.6094 46.1657 33.8993 45.8581C34.6923 45.0349 34.5146 44.7916 33.1076 44.7916C32.1053 44.7916 31.9768 44.8244 31.9768 45.0992ZM35.2256 45.2113C35.0314 45.4534 34.8851 45.6803 34.8851 45.7446C34.8851 45.7938 34.6595 45.988 34.4011 46.1657C33.7858 46.5691 33.7858 46.7305 34.449 47.3458C34.7238 47.6042 35.1449 48.0404 35.3541 48.2824L35.7425 48.7514L36.0009 48.3631C36.2743 48.0094 36.5712 47.6745 36.8897 47.3608C37.5692 46.714 37.5856 46.3763 36.9539 46.0687C36.7447 45.9716 36.4371 45.6639 36.2593 45.3891C35.8231 44.7259 35.6303 44.6945 35.2256 45.2113ZM36.1786 46.7469C36.1786 47.1188 35.9366 47.2637 35.5319 47.1352C35.1285 47.0053 35.1121 46.472 35.484 46.2615C35.8395 46.0687 36.1786 46.3107 36.1786 46.7469Z" fill="#F687B3"/>
<path d="M39.1362 44.972C39.0116 45.1166 38.938 45.2983 38.927 45.4889C38.927 45.6667 38.7493 45.9401 38.5223 46.1179C38.2967 46.2956 38.1189 46.539 38.1189 46.6689C38.1189 46.7975 38.2967 47.0887 38.5223 47.3143C38.7493 47.5413 38.927 47.8476 38.927 48.0253C38.927 48.5436 39.2825 48.5914 39.6859 48.1238C40.0264 47.719 40.0414 47.6548 39.8158 47.3307C39.5081 46.8945 39.5081 46.4091 39.7994 45.9907C40.01 45.6981 39.9935 45.6174 39.6873 45.2141C39.396 44.8586 39.2989 44.8093 39.1376 44.9707L39.1362 44.972ZM25.9304 46.3449C25.7526 46.7961 25.8347 47.2172 26.0767 47.2172C26.3351 47.2172 26.5771 46.5226 26.3994 46.2628C26.2544 46.0044 26.0439 46.0536 25.9304 46.3449Z" fill="#F687B3"/>
<path d="M39.9771 46.2628C39.8322 46.4734 40.0263 47.2172 40.2041 47.2172C40.3982 47.2172 40.4953 46.7482 40.4147 46.3599C40.3326 46.0536 40.1234 46.003 39.9771 46.2628ZM23.5224 47.3936C23.3611 48.6543 23.3926 49.6415 23.5553 49.6415C23.651 49.6415 23.8451 49.4146 24.0065 49.1561C24.1528 48.8813 24.3306 48.6707 24.3962 48.6707C24.6546 48.6707 25.5106 49.8507 26.0124 50.8694C26.3679 51.5804 26.5771 51.8717 26.6099 51.6775C26.7056 51.24 25.7854 49.5116 24.9609 48.5422C24.5575 48.0568 24.2171 47.5878 24.2171 47.4907C24.2171 47.3786 24.0721 47.1201 23.9108 46.9096L23.6195 46.5377L23.5238 47.395L23.5224 47.3936ZM42.3207 47.086C42.143 47.3758 41.998 47.6835 41.998 47.7806C41.9816 47.8626 41.6904 48.2332 41.3349 48.5887C40.6567 49.2682 39.9607 50.5768 39.7829 51.4505C39.6544 52.1616 39.8964 51.9182 40.3012 50.9173C40.6403 50.0599 41.6412 48.6858 41.9338 48.6694C42.0145 48.6694 42.2565 48.8799 42.4506 49.1548C42.6598 49.4132 42.8704 49.6402 42.9347 49.6402C43.0003 49.6402 43.0318 49.1548 43.0003 48.5408C42.9691 48.0294 42.9473 47.5175 42.9347 47.0053C42.9196 46.4228 42.7091 46.4556 42.3207 47.086ZM32.4936 47.5891C31.7183 48.3822 31.799 48.5107 33.1089 48.5107C34.0934 48.5107 34.2397 48.4779 34.2397 48.2195C34.2397 47.9132 33.4467 47.0559 33.1732 47.0559C33.0747 47.0559 32.7849 47.2979 32.4936 47.5891ZM27.9349 47.7013C27.418 48.4287 27.5958 48.6721 28.6623 48.6721C29.4061 48.6721 29.5511 48.6229 29.5511 48.3795C29.5511 48.0568 28.7594 47.2172 28.4695 47.2172C28.356 47.2172 28.1277 47.4428 27.9349 47.7013ZM37.0688 47.7177C36.8418 47.9925 36.6804 48.3152 36.7132 48.4123C36.7926 48.6393 38.4416 48.7363 38.6521 48.5258C38.7807 48.3972 38.6672 48.1867 38.2802 47.7819C37.9726 47.4757 37.6813 47.2172 37.6171 47.2172C37.5528 47.2172 37.3108 47.4428 37.0674 47.7177H37.0688ZM35.3377 49.1233C35.0478 49.1561 34.8865 49.2696 34.8865 49.4474C34.8865 49.5923 34.8044 50.4319 34.7238 51.322C34.546 53.1816 34.6759 53.6656 35.1121 52.7605C35.4676 52.033 36.0501 49.286 35.8874 49.1561C35.8231 49.1069 35.5811 49.0919 35.3377 49.1233ZM36.5355 49.204C36.18 49.6238 36.1308 50.6917 36.437 51.2728C36.5833 51.5804 36.7447 51.7418 36.7775 51.6611C37.0031 50.9501 37.4065 49.1397 37.3422 49.0755C37.1809 48.9127 36.6955 48.9934 36.5355 49.204ZM38.0054 49.1219C37.7634 49.2669 37.3108 51.1101 37.3108 51.9182C37.3108 52.2409 37.4065 52.5813 37.52 52.6784C37.6977 52.8234 37.7798 52.6935 37.9411 52.0153C38.0697 51.5463 38.3281 50.7381 38.5387 50.2213C38.7492 49.688 38.927 49.2026 38.927 49.1219C38.927 48.9606 38.2638 48.9606 38.0054 49.1219ZM27.7899 49.9492C27.9513 50.4004 28.2097 51.2413 28.356 51.8238C28.6145 52.8589 28.6295 52.8739 28.9371 52.5991C29.3419 52.2436 29.2762 51.4683 28.743 50.0777C28.4367 49.2546 28.356 49.1561 27.9362 49.1561H27.4823L27.7899 49.9492ZM29.2927 50.3662C29.4868 51.0294 29.6646 51.5791 29.7138 51.5791C29.7617 51.5627 29.923 51.4013 30.0693 51.1907C30.3277 50.8352 30.3277 50.7395 30.1008 49.9793C29.8916 49.2354 29.8109 49.1548 29.4061 49.1548H28.9536L29.2927 50.3662ZM30.4235 49.3995C30.4727 49.5294 30.634 50.2732 30.7639 51.0321C31.0237 52.4227 31.5242 53.5371 31.717 53.2144C31.8304 53.0531 31.5242 49.4966 31.3779 49.271C31.3464 49.2054 31.0866 49.1575 30.8118 49.1575C30.4412 49.1575 30.3428 49.2218 30.4235 49.3995ZM31.9111 49.833C31.9603 50.2213 32.041 50.9651 32.1053 51.4984L32.2188 52.4692L32.5907 51.8867C32.8642 51.4341 32.9462 51.0622 32.9462 50.2213V49.1548H31.814L31.9111 49.833ZM33.4316 50.2227C33.4316 51.2085 33.7707 52.2272 34.0934 52.2272C34.1426 52.2272 34.2561 51.6939 34.304 51.0472C34.3682 50.4182 34.4653 49.7208 34.5146 49.5116C34.5952 49.1889 34.5296 49.1561 34.0127 49.1561H33.4316V50.2227ZM24.3948 52.4856C23.5224 53.8598 23.5389 54.3931 24.4112 54.4573C24.9295 54.5052 25.0416 54.4409 25.2521 54.0198C25.5598 53.4387 25.5748 52.2915 25.3 51.7746C25.0908 51.4191 25.0744 51.4505 24.3948 52.4856ZM41.1407 51.7582C40.7045 52.4378 40.6717 52.9232 41.0122 53.7313C41.3349 54.4901 41.3677 54.5066 41.9488 54.4587C42.4821 54.4095 42.5641 54.3452 42.612 53.9569C42.6448 53.6985 42.5299 53.3279 42.3043 53.0203C42.0758 52.6762 41.8659 52.3202 41.6753 51.9537L41.3991 51.3712L41.1407 51.7582ZM26.48 52.5512C26.011 53.1009 25.7854 53.5371 25.769 53.8926L25.7526 54.4095H28.0169L28.0661 53.8284C28.114 53.2459 27.5493 51.7431 27.2895 51.7431C27.2088 51.7431 26.8533 52.1151 26.4828 52.5512H26.48ZM29.3897 52.5663C28.7266 53.4072 28.4681 54.0211 28.6623 54.3124C28.7115 54.4095 29.2927 54.4901 29.9722 54.4901C31.248 54.4901 31.2644 54.4737 31.1673 53.6014C31.1358 53.1966 30.3606 51.7418 30.1828 51.7418C30.1008 51.7418 29.7452 52.1137 29.3897 52.5663ZM32.5579 52.5184C31.8797 53.44 31.5871 54.1675 31.7826 54.3603C31.8633 54.4423 32.5415 54.4901 33.2867 54.4573C34.6267 54.4095 34.6431 54.4095 34.5952 54.0061C34.546 53.6014 33.4467 51.7582 33.2375 51.7418C33.1882 51.7418 32.8819 52.0973 32.5579 52.5184ZM35.5483 52.7769C34.773 54.2809 34.8851 54.4901 36.437 54.4901C37.8276 54.4901 38.0054 54.3288 37.5856 53.44C37.3108 52.8739 36.3892 51.7431 36.1786 51.7431C36.1143 51.7431 35.8231 52.2108 35.5496 52.7769H35.5483ZM38.6193 52.5198C38.3937 52.9888 38.2802 53.5221 38.313 53.8598L38.3609 54.4108L39.4602 54.4587C40.7045 54.5079 40.8659 54.378 40.4953 53.4892C40.2519 52.9232 39.3153 51.7431 39.1047 51.7431C39.0405 51.7431 38.8135 52.0987 38.6193 52.5198ZM23.0863 55.0562C23.0863 55.2668 24.3141 55.2996 33.1089 55.2996C41.901 55.2996 43.1288 55.2668 43.1288 55.0562C43.1288 54.847 41.901 54.8142 33.1076 54.8142C24.3155 54.8142 23.0849 54.847 23.0849 55.0562H23.0863ZM21.6314 55.863C21.6314 56.0722 23.037 56.105 33.2689 56.105C43.5008 56.105 44.9078 56.0722 44.9078 55.863C44.9078 55.6524 43.5008 55.6196 33.2689 55.6196C23.037 55.6196 21.6314 55.6524 21.6314 55.863ZM20.8876 56.6068C20.759 56.8324 21.2759 57.5776 21.6314 57.6733C21.7928 57.7212 21.9062 57.8347 21.8584 57.9331C21.7613 58.2066 22.3917 59.1774 22.6651 59.1774C22.9413 59.1774 23.7317 58.2709 23.7317 57.9646C23.7317 57.8511 23.9094 57.7048 24.1364 57.6569C24.5575 57.5434 25.1222 56.8639 24.9773 56.6383C24.9295 56.574 24.6382 56.5097 24.2991 56.5097C23.8465 56.5261 23.6688 56.6054 23.5224 56.9131C23.249 57.4628 22.2782 57.4956 22.0361 56.9459C21.9541 56.7517 21.8092 56.5904 21.7121 56.574C21.5652 56.5638 21.4194 56.5423 21.2759 56.5097C21.1146 56.4769 20.9368 56.5275 20.8876 56.6068Z" fill="#F687B3"/>
<path d="M22.4395 56.5918C22.2289 56.7216 22.2289 56.7695 22.4395 56.9951C22.6665 57.2057 22.7471 57.2057 22.9892 57.0279C23.5224 56.6396 23.0056 56.2362 22.4395 56.5918ZM27.1281 56.6724C27.1281 56.8174 27.3059 57.11 27.5315 57.3192C27.7407 57.5448 28.0319 57.7225 28.1782 57.7225C28.3068 57.7225 28.4203 57.836 28.4203 57.9659C28.4203 58.0945 28.6308 58.4349 28.8893 58.7248C29.3583 59.243 29.3897 59.243 29.8259 59.0161C30.0693 58.8711 30.3756 58.5307 30.5055 58.2408C30.6354 57.9659 30.8446 57.7225 30.9567 57.7225C31.2657 57.7225 31.9767 56.9951 31.9767 56.6724C31.9767 56.4947 31.799 56.4304 31.2493 56.4304C30.619 56.4304 30.5219 56.4783 30.4248 56.8338C30.1978 57.7075 29.0985 57.7554 28.6623 56.9158C28.4531 56.4947 28.3232 56.4304 27.7735 56.4304C27.3045 56.4304 27.1281 56.4947 27.1281 56.6724Z" fill="#F687B3"/>
<path d="M29.0014 56.5753C28.9536 56.6396 29.0014 56.8338 29.1313 56.9951C29.3911 57.367 30.0365 57.1893 30.0365 56.7367C30.0365 56.5097 29.923 56.429 29.5675 56.429C29.2941 56.429 29.0507 56.4947 29.0028 56.5753H29.0014ZM34.4011 56.7353C34.4011 57.0744 35.1121 57.7212 35.4676 57.7212C35.5975 57.7212 35.7274 57.8989 35.7903 58.1095C35.8395 58.3187 36.0652 58.6742 36.2757 58.8684C36.6476 59.2239 36.7133 59.2239 37.1166 59.0147C37.3587 58.8684 37.6171 58.5457 37.7142 58.238C37.8113 57.8989 37.9562 57.7212 38.1668 57.7212C38.4908 57.7212 39.2497 56.9773 39.2497 56.6546C39.2497 56.4933 39.0241 56.4277 38.5223 56.4277C37.8933 56.4277 37.7634 56.4769 37.6335 56.816C37.3108 57.6569 36.34 57.7048 36.0173 56.898C35.8395 56.4769 35.7425 56.4277 35.1121 56.4277C34.5146 56.4277 34.4011 56.4769 34.4011 56.7353Z" fill="#F687B3"/>
<path d="M36.2593 56.5753C36.1786 56.7367 36.5833 57.2385 36.8089 57.2385C37.0195 57.2385 37.4885 56.656 37.3586 56.5425C37.1973 56.3812 36.3741 56.414 36.2593 56.5753ZM41.4812 56.6068C41.2063 56.7845 41.7546 57.5284 42.24 57.6569C42.467 57.7061 42.6448 57.8511 42.6448 57.9646C42.6448 58.223 43.4201 59.176 43.6293 59.176C43.9205 59.176 44.4223 58.5142 44.4223 58.1423C44.4223 57.8989 44.5358 57.7048 44.7136 57.6569C45.1005 57.5284 45.6187 56.6546 45.3918 56.5083C45.0855 56.3155 44.503 56.5576 44.3416 56.9459C44.2282 57.2207 44.0176 57.3342 43.6142 57.3657C43.1452 57.3985 42.9989 57.3342 42.8061 56.9787C42.5627 56.5412 41.9023 56.3484 41.4812 56.6068Z" fill="#F687B3"/>
<path d="M43.0482 56.5918C42.9525 56.7367 43.3887 57.2385 43.5979 57.2385C43.8084 57.2385 44.1639 56.7531 44.0504 56.6396C43.8891 56.4947 43.1453 56.4455 43.0482 56.5918ZM32.655 57.1401C32.3637 57.4628 32.1381 57.8347 32.1381 57.9482C32.1381 58.0617 31.799 58.3365 31.3779 58.5635C30.9417 58.7727 30.5848 59.0803 30.5534 59.2417C30.4727 59.6136 30.9253 60.0976 31.5884 60.341C31.8947 60.4531 32.1381 60.6473 32.1381 60.7922C32.1381 60.9386 32.3473 61.2941 32.6071 61.6017C33.1718 62.2799 33.4795 62.1828 33.9963 61.1806C34.2069 60.7772 34.546 60.4367 34.9508 60.2275C35.8395 59.79 36.0009 59.4509 35.6126 58.9983C35.4348 58.8055 35.0478 58.5471 34.773 58.4172C34.4818 58.3037 34.2397 58.1095 34.2397 57.9974C34.2397 57.8675 33.9963 57.4956 33.7065 57.1565L33.1732 56.5412L32.655 57.1401ZM33.8514 58.7727C34.4982 59.4194 34.0606 60.3082 33.0912 60.3082C32.6399 60.3082 32.1381 59.8064 32.1381 59.3702C32.1381 59.0803 32.8806 58.3679 33.1882 58.3679C33.3345 58.3679 33.6258 58.5457 33.8514 58.7727Z" fill="#F687B3"/>
<path d="M32.7207 58.9491C32.413 59.2567 32.3966 59.3538 32.6714 59.7257C33.0105 60.1947 33.6573 59.9992 33.7216 59.4345C33.8036 58.7399 33.2061 58.4486 32.7207 58.9491ZM39.7023 57.1893C39.4439 57.5133 39.2511 57.9003 39.2511 58.0781C39.2511 58.2408 39.1363 58.3693 38.9749 58.3693C38.8136 58.3693 38.4252 58.5963 38.119 58.8547L37.5529 59.3237L38.0383 59.8242C38.2967 60.099 38.685 60.3574 38.8778 60.4067C39.0884 60.4709 39.2498 60.6323 39.2498 60.7786C39.2498 60.9235 39.4603 61.2954 39.7352 61.6017L40.2206 62.1678L40.7046 61.6345C40.9644 61.3433 41.19 61.0055 41.19 60.8907C41.19 60.7622 41.5127 60.4709 41.901 60.2453C42.8541 59.6792 42.9512 59.3716 42.3208 58.8233C42.0624 58.5635 41.7233 58.3693 41.5934 58.3693C41.4649 58.3693 41.3514 58.2736 41.3514 58.1587C41.3514 57.9003 40.4298 56.5918 40.252 56.5918C40.1877 56.6082 39.9457 56.8652 39.7023 57.1893ZM40.8345 58.6277C41.5619 59.1295 41.1408 60.3096 40.2356 60.3096C39.3796 60.3096 39.0241 59.388 39.6381 58.774C40.1071 58.305 40.3327 58.2722 40.8345 58.6277Z" fill="#F687B3"/>
<path d="M39.9293 58.8369C39.7994 58.919 39.7351 59.1774 39.7666 59.4358C39.7994 59.8078 39.9129 59.9212 40.252 59.9527C40.6075 60.0019 40.721 59.9212 40.8017 59.5972C40.963 58.9354 40.4626 58.4965 39.9293 58.8369ZM25.6405 57.1879C25.4135 57.4477 25.1879 57.7868 25.1223 57.9646C25.0744 58.1423 24.7668 58.4336 24.4441 58.6113C23.3776 59.1925 23.3776 59.8556 24.4605 60.3725C24.7832 60.5338 25.058 60.7936 25.1223 61.0192C25.1715 61.2298 25.43 61.6168 25.6884 61.8601L26.1738 62.3291L26.4965 61.9244C26.6876 61.6737 26.8503 61.4027 26.9819 61.1163C27.0626 60.8893 27.4017 60.5666 27.7257 60.3889C28.8565 59.7736 28.8565 59.2253 27.7257 58.6428C27.4017 58.4814 27.1268 58.2558 27.1268 58.1587C27.1268 57.9318 26.3201 56.7517 26.1738 56.7517C26.1095 56.7517 25.8661 56.9445 25.6405 57.1879ZM26.6742 58.8055C27.2731 59.3388 26.9012 60.4696 26.1246 60.4696C25.3178 60.4696 24.8967 59.4358 25.4628 58.8205C25.7855 58.465 26.2859 58.4486 26.6742 58.8055Z" fill="#F687B3"/>
<path d="M25.7048 58.9983C25.5749 59.0639 25.5106 59.3388 25.5434 59.5972C25.5913 60.0006 25.6555 60.0662 26.0767 60.0662C26.5279 60.0662 26.5607 60.017 26.5607 59.5001C26.5607 59.0626 26.4965 58.9176 26.238 58.8848C26.0603 58.8698 25.8183 58.9176 25.7048 58.9983ZM45.9743 57.1072C45.8294 57.3014 45.7145 57.6733 45.7145 57.9153C45.7145 58.2066 45.6188 58.3843 45.3918 58.4486C44.9721 58.5785 44.3745 59.4345 44.5195 59.6929C44.7793 60.1619 45.3125 60.6309 45.5696 60.6309C45.7966 60.6309 45.8444 60.728 45.7802 61.1491C45.7323 61.4882 45.7966 61.7945 45.9579 61.9887C46.1849 62.2963 46.1999 62.2963 46.5404 61.9887C46.7346 61.8273 46.9766 61.4882 47.1051 61.2448C47.3157 60.8251 47.2993 60.7444 46.9123 60.1633C46.5076 59.5316 46.5076 59.5165 46.766 58.9504C46.9274 58.6277 47.1051 58.3201 47.1872 58.2709C47.3649 58.1587 46.993 57.4149 46.5554 57.0266C46.2492 56.7353 46.2328 56.734 45.9743 57.1072ZM19.4656 57.5585L19.028 58.2216L19.3685 58.6414C19.7883 59.1747 19.7883 59.8214 19.3521 60.3711C18.9802 60.8565 19.0294 61.0821 19.7076 61.9066C20.0152 62.2786 20.0316 62.2786 20.3543 61.9887C20.6141 61.7617 20.6784 61.5511 20.6141 61.1478C20.5485 60.8237 20.5813 60.6623 20.677 60.7266C20.8233 60.8087 21.9541 59.7243 21.9541 59.4823C21.9541 59.4181 21.6643 59.1104 21.3074 58.8041C20.8712 58.4322 20.662 58.1246 20.662 57.8497C20.662 57.4942 20.2409 56.9131 19.9824 56.9131C19.9346 56.9131 19.709 57.203 19.4656 57.5585Z" fill="#F687B3"/>
<path d="M47.1871 58.8383C46.8316 59.5015 47.0572 60.3096 47.6233 60.3096C47.7847 60.3096 47.8161 60.099 47.7847 59.4687C47.7354 58.5799 47.4606 58.3064 47.1858 58.8397L47.1871 58.8383ZM18.4797 59.176C18.2855 60.0648 18.6903 60.5981 19.1743 60.114C19.4177 59.8707 19.4177 59.1268 19.1743 58.8848C18.8516 58.5621 18.5932 58.6592 18.4797 59.176ZM22.311 59.9035C22.1168 60.1469 21.9227 60.4695 21.8734 60.6473C21.8092 60.81 21.5672 61.1655 21.2923 61.424C20.677 62.0543 20.6934 62.2485 21.388 62.2485C21.7613 62.2485 21.9541 62.1664 21.9541 62.0379C21.9541 61.9094 22.1004 61.6824 22.2782 61.521C22.3765 61.4345 22.4944 61.3732 22.6217 61.3423C22.7489 61.3114 22.8818 61.3118 23.0089 61.3435C23.1359 61.3753 23.2534 61.4374 23.3512 61.5245C23.449 61.6116 23.5242 61.7212 23.5703 61.8437C23.7002 62.1842 23.8301 62.2485 24.3798 62.2485C24.7353 62.2485 25.0252 62.1664 25.0252 62.0871C25.0252 61.8273 24.2663 61.1163 24.0079 61.1163C23.878 61.1163 23.733 60.955 23.6674 60.7444C23.6195 60.5516 23.3775 60.1797 23.1177 59.9376L22.6501 59.4837L22.311 59.9035ZM29.0178 59.9527C28.7922 60.1961 28.5816 60.5352 28.5502 60.7129C28.5303 60.804 28.4847 60.8875 28.4188 60.9535C28.3529 61.0194 28.2694 61.065 28.1783 61.0849C27.7735 61.1655 27.1268 61.7466 27.1268 62.0379C27.1268 62.1842 27.3538 62.2485 27.8228 62.2485C28.4203 62.2485 28.5338 62.1992 28.7115 61.7631C29.0999 60.9235 30.2307 60.9714 30.4563 61.8451C30.5383 62.2006 30.6504 62.2485 31.2644 62.2485C31.6527 62.2485 31.9754 62.1664 31.9754 62.0871C31.9754 61.8123 31.2165 61.1163 30.9253 61.1163C30.7968 61.1163 30.6833 61.0206 30.6833 60.8907C30.6833 60.6159 30.1008 59.872 29.7289 59.6614C29.5032 59.5493 29.3419 59.6136 29.0178 59.9527ZM36.195 60.0662C35.9216 60.3889 35.6946 60.7444 35.6946 60.8743C35.6946 61.0042 35.5647 61.1163 35.4033 61.1163C35.0793 61.1163 34.4011 61.7467 34.4011 62.0543C34.4011 62.1678 34.6595 62.2485 35.0478 62.2485C35.5975 62.2485 35.726 62.1842 35.9366 61.7631C36.3742 60.9235 37.4721 60.9714 37.6977 61.8451C37.7948 62.2006 37.8919 62.2485 38.5223 62.2485C39.0405 62.2485 39.2497 62.1842 39.2497 62.0215C39.2497 61.6824 38.3131 60.955 38.0382 61.052C37.8755 61.1163 37.7948 61.052 37.7948 60.8264C37.7948 60.486 37.0674 59.5001 36.8254 59.5001C36.7611 59.5001 36.4699 59.7599 36.195 60.0662ZM43.1453 59.9199C42.9675 60.1455 42.7733 60.4695 42.7255 60.6473C42.6599 60.8087 42.5313 60.9536 42.4014 60.9536C42.143 60.9536 41.3185 61.8916 41.4169 62.0693C41.5947 62.3428 42.6284 62.0365 42.8868 61.6496C43.2259 61.1313 44.0983 61.1806 44.3417 61.7138C44.4538 61.9873 44.6316 62.0858 45.0527 62.0858C45.5696 62.0858 45.586 62.0693 45.359 61.7138C45.202 61.5042 45.0043 61.3285 44.7779 61.197C44.5509 61.0999 44.4224 60.8893 44.4224 60.6145C44.4224 60.259 43.8563 59.4987 43.5814 59.4987C43.5172 59.4987 43.323 59.6929 43.1453 59.9199Z" fill="#F687B3"/>
<path d="M29.1642 61.6988C28.7594 62.1035 28.8565 62.2485 29.5525 62.2485C30.2471 62.2485 30.2799 62.2156 30.0365 61.7466C29.8273 61.3747 29.5033 61.3597 29.1642 61.6988ZM36.3728 61.6345C36.0173 61.99 36.1623 62.2485 36.7119 62.2485C37.3751 62.2485 37.505 62.135 37.2944 61.7466C37.1167 61.3911 36.6641 61.3433 36.3728 61.6345ZM43.226 61.7002C42.8705 62.0557 42.8869 62.0871 43.5336 62.0871C44.164 62.0871 44.2775 61.8615 43.7934 61.6031C43.55 61.4896 43.4201 61.5074 43.226 61.7002ZM22.3917 61.6988C22.1169 61.9723 22.3097 62.2485 22.7787 62.2485C23.167 62.2485 23.2641 62.1842 23.2162 61.9572C23.167 61.6837 22.6009 61.4896 22.3917 61.6988ZM21.6315 62.9745C21.6315 63.1851 23.0221 63.2179 33.1883 63.2179C43.3559 63.2179 44.7451 63.1851 44.7451 62.9745C44.7451 62.7653 43.3559 62.7325 33.1883 62.7325C23.0221 62.7325 21.6315 62.7653 21.6315 62.9745ZM22.8429 64.8177C23.409 65.9485 23.4254 65.9663 24.0558 65.9663C24.4113 65.9663 24.7025 65.9171 24.7025 65.8364C24.7025 65.7707 24.5726 65.2867 24.4113 64.7534L24.12 63.7826L23.1984 63.7348L22.2618 63.6855L22.8429 64.8177ZM24.8639 63.7826C24.8639 63.8319 24.9774 64.3487 25.1237 64.9148L25.3821 65.9649H26.0931C26.4814 65.9649 26.8041 65.9171 26.8041 65.8514C26.8041 65.8036 26.7221 65.2867 26.6264 64.7206L26.4486 63.702H25.6556C25.2194 63.702 24.8639 63.7334 24.8639 63.7826ZM27.1282 63.8168C27.1432 63.8989 27.2239 64.3829 27.3374 64.9162C27.548 65.8706 27.548 65.887 28.1455 65.9348C28.8251 65.9991 28.8087 65.9991 28.6473 64.5456L28.5338 63.7047H27.8378C27.4509 63.7047 27.1282 63.7525 27.1282 63.8168ZM29.2927 64.3009C29.3419 64.64 29.3898 65.1568 29.3898 65.4316C29.3898 65.9485 29.4226 65.9649 30.0365 65.9649H30.6833V63.702H29.1792L29.2927 64.3009ZM31.3615 64.7849L31.4107 65.8842L32.1053 65.9321L32.7849 65.9813V63.702H31.3123L31.3601 64.7849H31.3615ZM33.4959 63.9303C33.4467 64.0438 33.4317 64.5456 33.4631 65.0132L33.5123 65.887L34.1741 65.9348C34.8373 65.9841 34.8373 65.9676 34.9344 65.3687C35.0018 64.9899 35.0398 64.6063 35.0479 64.2215C35.0479 63.7211 35.0315 63.7047 34.3204 63.7047C33.8514 63.7047 33.5438 63.7854 33.4959 63.9303ZM35.6946 64.8177V65.9663H36.2429C36.5506 65.9663 36.8418 65.9171 36.8746 65.8364C36.9225 65.7707 36.9868 65.2867 37.0032 64.7534L37.0674 63.7826L36.3892 63.7348L35.6946 63.6855V64.8177ZM37.7306 63.9604C37.6814 64.1067 37.6335 64.6071 37.6335 65.0925V65.9649H38.2639C38.6194 65.9649 38.9434 65.9171 38.9749 65.8364C39.0077 65.7707 39.0884 65.2703 39.1526 64.7042L39.2661 63.702H38.5551C38.0383 63.702 37.7949 63.7826 37.7306 63.9604ZM39.9949 63.8469C39.9293 63.9289 39.8486 64.4458 39.7844 64.9955L39.6859 65.98L40.3012 65.9321C40.8823 65.8842 40.9302 65.8364 41.2064 65.0761C41.6576 63.799 41.6262 63.702 40.8017 63.702C40.3983 63.702 40.0428 63.7662 39.9949 63.8469ZM42.2729 63.8141C42.1758 63.9782 41.674 65.6586 41.674 65.8364C41.674 65.9006 41.9817 65.9649 42.37 65.9649H43.0646L43.6635 64.8341L44.2446 63.702H43.2916C42.7734 63.702 42.3044 63.7512 42.2729 63.8154V63.8141ZM21.4701 67.1285L20.9683 67.8231L33.2061 67.8724C39.9457 67.8888 45.4739 67.8724 45.5217 67.8231C45.5696 67.7917 45.4083 67.4526 45.1662 67.0957L44.7465 66.4503H21.987L21.4701 67.1285ZM17.8494 68.7283C17.5858 68.8058 17.3391 68.932 17.122 69.1002C16.9756 69.2301 16.4273 69.5378 15.9091 69.7798C15.1174 70.1353 15.0039 70.231 15.2473 70.3609C15.7314 70.6358 18.075 70.443 18.786 70.0711C19.3849 69.7634 20.1602 68.9553 19.9988 68.8104C19.8539 68.6805 18.2856 68.6162 17.8494 68.7283ZM21.0175 68.8268C20.904 69.1331 20.8876 71.5751 21.0175 71.7037C21.0503 71.7365 21.6807 71.5587 22.3917 71.2839C23.7317 70.7657 24.6068 70.1039 24.8967 69.3764C25.1715 68.6162 25.0266 68.5519 23.0056 68.5519C21.373 68.5519 21.1146 68.5847 21.0175 68.8268ZM25.8976 68.7967C25.8333 68.9252 25.8497 69.2329 25.914 69.4749C26.0767 70.1381 27.1268 71.9484 27.336 71.9484C27.4509 71.9484 28.1291 71.3659 28.8729 70.6713C29.9231 69.6691 30.2143 69.2971 30.1651 69.0059C30.1172 68.6504 30.0694 68.634 28.0484 68.5861C26.3187 68.5533 25.9783 68.5861 25.8976 68.7967ZM30.8925 68.8104C30.764 69.1823 31.006 69.6335 32.1532 71.0405L33.1719 72.3012L33.6245 71.7679C34.7566 70.4416 35.5319 69.2944 35.5319 68.9389V68.5519H33.2689C31.3615 68.5519 30.9745 68.5834 30.8925 68.8104ZM36.2593 68.7146C36.1951 68.8104 36.1951 69.0537 36.2429 69.2643C36.325 69.587 36.6805 69.9589 38.5387 71.6394L39.0556 72.1084L39.7187 71.0091C40.1385 70.298 40.3969 69.6691 40.4297 69.2643L40.4626 68.634L38.4088 68.5848C37.0688 68.5533 36.325 68.6012 36.2593 68.7146ZM41.432 68.7133C41.2378 69.0209 41.7068 70.0068 42.2251 70.4102C42.6613 70.7493 44.9557 71.7843 45.2633 71.7843C45.4725 71.7843 45.586 69.7155 45.3918 69.1331L45.1977 68.5519H43.3723C42.2893 68.5519 41.4963 68.6162 41.432 68.7133ZM46.9438 68.6955L46.1371 68.794L46.6525 69.3915C47.3157 70.1353 48.3344 70.4908 49.8207 70.4908C51.1785 70.4908 51.6803 70.2803 51.0007 70.0218C50.7423 69.9261 50.5167 69.8441 50.4674 69.8441C50.4196 69.8441 50.0162 69.6021 49.5458 69.3108C48.5928 68.6955 48.0759 68.5834 46.9438 68.6955Z" fill="#F687B3"/>
<path d="M12.2241 70.9776C9.15305 72.4817 6.30897 74.8732 5.09613 76.9584C4.77344 77.5231 4.4986 78.0892 4.4986 78.2027C4.4986 78.3804 10.0746 78.4133 33.2047 78.4133H61.8957L61.7822 78.0413C61.3132 76.5373 59.7449 74.6134 57.9195 73.3213C56.7709 72.5282 54.5244 71.3003 53.425 70.8969C52.6825 70.6221 52.5855 70.6221 51.8895 70.8641C50.4674 71.3495 48.8348 71.3646 47.6234 70.8969C47.4128 70.8149 47.3321 70.8641 47.3321 71.0583C47.3321 71.3318 47.3157 71.3318 46.3298 71.0255C46.07 70.9448 46.0386 71.0583 46.0386 71.7693C46.0386 72.7552 45.7966 72.9329 45.0199 72.5446C44.4368 72.2619 43.8497 71.9875 43.2588 71.7215C42.1266 71.2196 41.9817 71.1882 41.8518 71.4302C41.7068 71.6886 41.6426 71.6722 41.0601 71.3482L40.4311 70.9927L39.9771 71.9143C39.2661 73.3527 39.3154 73.3527 38.3774 72.4161C37.9248 71.9635 37.3915 71.4781 37.1809 71.3331C36.8254 71.0911 36.7776 71.1062 36.4221 71.5587L36.0501 72.0277L35.5319 71.5423L35.0315 71.0747L34.6267 71.5437C34.4175 71.8172 33.9977 72.3504 33.7215 72.7388L33.2047 73.4662L32.7206 72.8372C32.4458 72.4954 31.9768 71.9471 31.6856 71.6394L31.1687 71.0583L30.764 71.5423L30.3442 72.0277L29.9559 71.5765C29.7453 71.3331 29.5046 71.139 29.4226 71.139C29.3406 71.139 28.7923 71.608 28.2262 72.1727C27.6451 72.7388 27.1104 73.1599 27.0297 73.1107C26.9491 73.0464 26.6906 72.5774 26.4486 72.0606C26.2066 71.5587 25.9154 71.139 25.8183 71.139C25.7212 71.139 25.4299 71.2675 25.1551 71.4124C24.7189 71.6886 24.6711 71.6886 24.5261 71.4302C24.3962 71.2032 24.1843 71.2525 22.5695 71.9635C21.5836 72.3997 20.662 72.7224 20.5485 72.6909C20.4186 72.6417 20.3379 72.3354 20.3379 71.8828C20.3379 71.0419 20.193 70.8969 19.6105 71.1718C19.24 71.3331 19.1593 71.3331 19.0294 71.0897C18.8995 70.8805 18.8024 70.8641 18.4305 71.0091C18.1885 71.1061 17.3804 71.1868 16.6215 71.1868C15.4729 71.2032 15.101 71.139 14.3585 70.7999L13.4534 70.3787L12.2241 70.9776ZM0.973582 73.886C0.764378 73.9817 0.456725 74.355 0.262561 74.8076C-0.0437243 75.5022 -0.0601325 75.6799 0.101214 76.4716C0.262561 77.199 0.440316 77.4903 1.1363 78.2013C2.12079 79.2036 3.04375 79.6083 3.04375 79.0586C3.04375 78.993 2.67183 78.7031 2.23564 78.3955C0.458092 77.199 0.0369492 74.5327 1.6053 74.5327C2.67183 74.5327 3.10801 75.1945 3.28577 77.1184C3.4307 78.509 3.44711 78.5568 3.86689 78.4597C4.20736 78.364 4.20736 78.2984 4.11028 77.1512C3.98038 75.4694 3.4307 74.3071 2.63901 73.9653C1.96081 73.6918 1.52326 73.6754 0.973582 73.886ZM63.3492 74.6134C62.671 75.2437 62.3962 75.9712 62.3319 77.4424C62.2827 78.2492 62.3155 78.3312 62.6546 78.3791C62.9787 78.4283 63.0101 78.3791 63.0101 77.5723C63.0101 75.8085 63.609 74.8568 64.7084 74.8568C65.1117 74.8568 65.3537 74.9853 65.6614 75.3572C66.5023 76.3595 65.9526 77.6038 64.2708 78.5254C63.4791 78.9629 63.2535 79.3813 63.7868 79.3813C64.2708 79.3813 66.0497 78.137 66.4052 77.571C66.9699 76.6343 66.7771 75.5022 65.872 74.5655C65.4672 74.1444 65.2416 74.0473 64.6755 74.0473C64.1095 74.0473 63.8674 74.1444 63.3492 74.6134Z" fill="#F687B3"/>
<path d="M1.7502 77.7665C1.7502 77.8472 1.94436 77.9278 2.16997 77.9278C2.39695 77.9278 2.73605 78.0099 2.93022 78.1056C3.26932 78.2669 3.26932 78.2505 2.8974 77.9443C2.51044 77.5887 1.7502 77.4753 1.7502 77.7665ZM63.5269 77.9579C63.2371 78.2492 63.2849 78.4912 63.5926 78.2492C63.7225 78.1193 64.1094 77.9743 64.4335 77.9101L65.031 77.7966L64.3843 77.7802C64.0123 77.7802 63.6391 77.8444 63.5269 77.9579ZM0.441645 78.6881C0.344563 78.9479 0.295339 79.4962 0.344563 79.9324C0.425237 80.8211 0.973543 81.4843 1.65311 81.4843C2.18638 81.4843 3.10797 80.8047 3.17224 80.385C3.23787 79.9816 2.96303 79.8996 2.81673 80.2715C2.76887 80.4014 2.47762 80.627 2.16997 80.7897C1.65311 81.0317 1.57244 81.0317 1.20052 80.7897C0.715114 80.4656 0.522318 79.6575 0.762971 79.0121C0.989951 78.4461 0.989951 78.2519 0.780747 78.2519C0.683665 78.2519 0.537359 78.4461 0.441645 78.6881ZM4.01315 78.7865C3.39785 78.9957 3.18865 79.5126 3.59201 79.8531C3.91607 80.1115 62.6382 80.1115 62.9622 79.8531C63.2357 79.6097 63.2357 78.9643 62.9458 78.8508C62.8323 78.8016 49.6429 78.7209 33.6572 78.673C10.802 78.6074 4.46438 78.6252 4.01315 78.7865ZM62.4946 79.4155C62.5424 79.6904 61.0712 79.7068 33.2853 79.7068C3.34999 79.7068 3.57697 79.7068 4.12664 79.1735C4.1745 79.1092 17.3311 79.0778 33.3332 79.0915C60.9098 79.1407 62.444 79.1571 62.4932 79.4155H62.4946ZM65.6614 79.5112C65.6778 80.1101 65.5971 80.5627 65.4508 80.7241C65.1117 81.1438 64.2721 81.0632 63.8182 80.5942C63.3984 80.158 63.1728 80.0773 63.1728 80.385C63.1728 80.6584 64.1751 81.4515 64.6905 81.58C65.0324 81.6621 65.2252 81.565 65.6778 81.1124C66.1632 80.627 66.2439 80.4328 66.2439 79.8189C66.2439 78.9451 66.1304 78.5746 65.8391 78.5746C65.7106 78.5746 65.645 78.8645 65.6614 79.5112ZM4.49856 80.6256C4.5136 81.7086 6.48669 84.003 8.47481 85.2965C11.1083 86.9947 15.2787 88.5617 18.7381 89.1442C28.4367 90.7604 36.9375 90.7604 46.6046 89.1442C48.2044 88.8694 51.8416 87.9314 52.7946 87.5444C54.6064 86.7842 55.6401 86.2823 57.9837 85.0216C59.5356 84.1821 61.5074 81.9998 61.7986 80.787L61.9121 80.3494H33.2046C5.96846 80.3494 4.49856 80.3672 4.49856 80.6256ZM62.3647 82.8558C62.3647 84.4241 62.429 85.3621 62.526 85.3621C62.6217 85.3621 62.6874 84.4241 62.6874 82.8558C62.6874 81.2888 62.6231 80.3508 62.526 80.3508C62.429 80.3508 62.3647 81.2888 62.3647 82.8558ZM3.43203 82.2117C3.43203 83.1826 3.44707 83.5695 3.47989 83.0513C3.51222 82.4592 3.51222 81.8658 3.47989 81.2737C3.44707 80.8047 3.43203 81.2259 3.43203 82.2117ZM3.85181 82.9378C3.85181 84.9888 3.88326 85.3621 4.09383 85.3621C4.3044 85.3621 4.33585 84.9902 4.33585 82.9378C4.33585 80.884 4.3044 80.5121 4.09383 80.5121C3.88326 80.5121 3.85181 80.884 3.85181 82.9378ZM62.913 82.3717C62.913 83.2605 62.9294 83.601 62.9622 83.132C62.9945 82.5937 62.9945 82.054 62.9622 81.5158C62.9294 81.096 62.913 81.4816 62.913 82.3717ZM63.0101 84.3913C63.0101 84.4733 63.0921 84.5526 63.1728 84.5526C63.2685 84.5526 63.3341 84.472 63.3341 84.3913C63.3341 84.2942 63.2699 84.2299 63.1728 84.2299C63.1515 84.2298 63.1304 84.2338 63.1106 84.2418C63.0909 84.2499 63.0729 84.2617 63.0578 84.2767C63.0427 84.2917 63.0307 84.3096 63.0225 84.3292C63.0143 84.3489 63.0101 84.37 63.0101 84.3913ZM2.72101 84.9574C2.72101 85.2814 2.80032 85.3621 3.12438 85.3621C3.44707 85.3621 3.52775 85.2801 3.52775 84.9574C3.52775 84.6347 3.44707 84.554 3.12438 84.554C2.80032 84.554 2.71965 84.6347 2.71965 84.9574H2.72101ZM62.8487 85.038C62.8487 85.2978 62.9622 85.3621 63.3341 85.3621C63.7061 85.3621 63.8182 85.2965 63.8182 85.038C63.8182 84.7796 63.7061 84.7154 63.3341 84.7154C62.9622 84.7154 62.8487 84.7796 62.8487 85.038ZM1.86369 85.801C1.68593 86.1073 1.57244 89.5667 1.73379 89.5667C1.81583 89.5667 1.91154 89.1141 1.94436 88.5644C1.99222 87.6428 2.02503 87.5294 2.44481 87.3366C2.78528 87.1738 2.88236 87.0125 2.88236 86.6255C2.88236 86.3343 2.99448 86.043 3.17224 85.9145C3.41562 85.719 3.34999 85.7039 2.6882 85.6875C2.26705 85.6875 1.89513 85.7368 1.86369 85.801ZM3.68909 85.8489C3.68909 85.9296 3.8354 86.0102 4.01315 86.0102C4.19091 86.0102 4.33585 85.9282 4.33585 85.8489C4.33585 85.7518 4.19091 85.6875 4.01315 85.6875C3.8354 85.6875 3.68909 85.7518 3.68909 85.8489ZM62.2826 85.8489C62.2348 85.9296 62.3319 86.0102 62.526 86.0102C62.7202 86.0102 62.8159 85.9282 62.7681 85.8489C62.7443 85.804 62.7098 85.7657 62.6675 85.7375C62.6253 85.7093 62.5766 85.6921 62.526 85.6875C62.4752 85.6918 62.4262 85.7088 62.3837 85.737C62.3411 85.7652 62.3064 85.8037 62.2826 85.8489ZM63.382 85.9104C63.5433 86.0403 63.6568 86.3316 63.6568 86.6392C63.6568 87.0262 63.7539 87.1875 64.0452 87.3174C64.3843 87.4788 64.4499 87.6565 64.5456 88.6109C64.6112 89.2249 64.7083 89.6939 64.7726 89.661C64.9011 89.5804 64.6906 86.0895 64.5456 85.8462C64.4977 85.7655 64.1422 85.6848 63.7703 85.6848C63.1728 85.7012 63.1236 85.7163 63.382 85.9104Z" fill="#F687B3"/>
<path d="M3.0437 86.7377V87.3037H4.82125V86.1716H3.0437V86.7377ZM61.7179 86.7541V87.3201L62.5739 87.2709C63.3984 87.2231 63.4148 87.2067 63.4627 86.6898L63.5119 86.1716H61.7179V86.7541ZM3.0437 88.8215C3.0437 90.5676 2.88098 92.151 2.68819 92.151C2.60615 92.151 2.59111 91.2294 2.65537 89.888C2.75108 87.8356 2.73604 87.6251 2.49402 87.6251C2.12211 87.6251 2.1057 87.7071 2.00862 90.2435L1.92657 92.475H5.87137L5.82351 90.4213C5.77429 88.0941 5.71002 87.6251 5.41878 87.6251C5.25743 87.6251 5.22462 88.1583 5.27384 89.888C5.3217 91.295 5.29025 92.151 5.1918 92.151C4.9826 92.151 4.82125 90.599 4.82125 88.8215C4.82125 88.0284 4.75698 87.4637 4.6599 87.4637C4.56282 87.4637 4.49719 88.3525 4.49719 89.8073C4.49719 91.2622 4.43292 92.151 4.33584 92.151C4.24013 92.151 4.17449 91.295 4.17449 89.9044C4.17449 88.5631 4.11023 87.6087 4.01315 87.5444C3.81898 87.4309 3.83539 87.3024 3.8518 90.0015C3.86684 91.8447 3.83539 92.151 3.60841 92.151C3.39921 92.151 3.36639 91.8119 3.36639 89.8073C3.36639 88.3525 3.30213 87.4637 3.20504 87.4637C3.10796 87.4637 3.0437 88.0298 3.0437 88.8215Z" fill="#F687B3"/>
<path d="M60.9577 87.8028C60.862 88.0298 60.7471 89.177 60.7157 90.3406L60.6664 92.4737H64.4813L64.3679 90.2449C64.2065 86.9783 63.9166 86.7363 63.8182 89.8073C63.7225 92.6036 63.5119 92.4258 63.4463 89.4847C63.3984 86.7199 63.0908 86.9633 63.0757 89.8073C63.0593 91.3114 62.9937 92.0703 62.8651 92.1182C62.7352 92.1674 62.6874 91.4892 62.6874 89.8238C62.6874 88.3525 62.6231 87.4637 62.526 87.4637C62.429 87.4637 62.3633 88.321 62.3633 89.7103C62.3633 91.0516 62.2991 92.006 62.202 92.0703C62.1063 92.1346 62.0406 91.3757 62.0406 89.9044C62.0406 87.8356 61.9121 87.0603 61.6523 87.7221C61.6044 87.8684 61.5566 88.9186 61.5566 90.0658C61.5566 93.0234 61.2489 92.7649 61.2011 89.7595C61.1518 87.7878 61.119 87.4473 60.9577 87.8028Z" fill="#F687B3"/>
</g>
<defs>
<clipPath id="clip0_1_14">
<rect width="67" height="92.9796" fill="white"/>
</clipPath>
</defs>
</svg>
